<svg width="50" height="56" viewBox="0 0 50 56" fill="none" xmlns="http://www.w3.org/2000/svg">
<path d="M36.4282 56H5.17258C4.62584 56 4.07909 55.8178 3.62347 55.4533L0.798618 52.9929C0.0696238 52.3551 -0.20375 51.3527 0.160747 50.4414C0.525244 49.5302 1.34536 48.8923 2.34773 48.8923H39.2531C40.2554 48.8923 41.0755 49.5302 41.44 50.4414C41.8045 51.3527 41.5312 52.3551 40.8022 52.9929L37.9773 55.4533C37.5217 55.8178 36.975 56 36.4282 56ZM2.34773 50.7148C2.07436 50.7148 1.89211 50.9882 1.89211 51.0793C1.89211 51.1704 1.80098 51.4438 2.07436 51.6261L4.89921 54.0864C4.99033 54.1775 5.08146 54.1775 5.26371 54.1775H36.5193C36.6105 54.1775 36.7927 54.1775 36.8838 54.0864L39.7087 51.6261C39.9821 51.4438 39.8909 51.1704 39.8909 51.0793C39.8909 50.9882 39.7087 50.7148 39.4353 50.7148H2.34773Z" fill="#A38E65"/>
<path d="M11.7331 50.6238C5.08106 47.161 0.980469 40.4178 0.980469 32.9457V24.6533C0.980469 23.1954 2.16508 22.0107 3.62307 22.0107H38.068C39.526 22.0107 40.7107 23.1954 40.7107 24.6533V32.9457C40.7107 35.0415 40.3462 37.1374 39.7083 39.1421C39.3438 40.2356 38.8882 41.3291 38.3414 42.4226C36.4278 45.9764 33.5118 48.8013 29.958 50.7149L29.1379 48.9835C32.4183 47.3433 35.061 44.7007 36.7923 41.5113C37.3391 40.6001 37.7035 39.5977 38.068 38.5954C38.6148 36.7729 38.9793 34.9504 38.9793 33.0368V24.7445C38.9793 24.2888 38.6148 23.9244 38.1592 23.9244H3.62307C3.16745 23.9244 2.80295 24.2888 2.80295 24.7445V33.0368C2.80295 39.8711 6.53905 45.9764 12.5533 49.0746L11.7331 50.6238Z" fill="#A38E65"/>
<path d="M38.0685 42.8782C37.8863 42.8782 37.704 42.8782 37.4307 42.8782L37.5218 41.0557C37.704 41.0557 37.8863 41.0557 38.0685 41.0557C43.3537 41.0557 47.6366 37.593 47.6366 33.3102C47.6366 29.5741 44.1739 26.2025 39.6176 25.6557L39.891 23.8333C45.4496 24.5622 49.4591 28.5717 49.4591 33.3102C49.5502 38.5043 44.4472 42.8782 38.0685 42.8782ZM38.9798 39.78L38.7975 37.9575C42.078 37.6841 44.6295 35.6794 44.6295 33.3102C44.6295 31.1232 42.5336 29.2096 39.7088 28.754L39.9821 26.9315C43.8094 27.5693 46.452 30.2119 46.452 33.3102C46.452 36.5906 43.1715 39.4155 38.9798 39.78Z" fill="#A38E65"/>
<path d="M10.2757 17.4544C9.91116 17.4544 9.63779 17.2721 9.45554 16.9988L8.27093 14.6295C7.35968 12.8982 7.72418 10.8023 9.09104 9.43544C9.82004 8.70645 10.2757 7.70408 10.1845 6.70171C10.1845 5.69935 9.72891 4.69698 8.9088 4.05911C8.5443 3.69461 8.45317 3.14787 8.81767 2.78337C9.18217 2.41887 9.72891 2.32775 10.0934 2.69224C11.278 3.69461 11.9159 5.1526 11.9159 6.70171C11.9159 8.25082 11.3692 9.70881 10.1845 10.8023C9.36442 11.6224 9.18217 12.807 9.72891 13.8094L10.9135 16.1786C11.1869 16.6343 11.0047 17.181 10.549 17.3633C10.6402 17.3633 10.4579 17.4544 10.2757 17.4544Z" fill="#A38E65"/>
<path d="M20.3905 18.8214C20.0261 18.8214 19.7527 18.6391 19.5704 18.3658L18.0213 15.3587C16.9278 13.2628 17.3834 10.6202 19.0237 8.97997C20.1172 7.9776 20.6639 6.70186 20.6639 5.24387C20.6639 3.87701 20.0261 2.51015 19.0237 1.5989C18.6592 1.23441 18.5681 0.68766 18.9326 0.323163C19.2971 -0.041334 19.8438 -0.132459 20.2083 0.232039C21.6663 1.50778 22.4864 3.33026 22.4864 5.15275C22.4864 7.06636 21.7574 8.88884 20.3905 10.1646C19.2971 11.2581 19.0237 12.9894 19.6616 14.3563L21.2107 17.3634C21.484 17.819 21.3018 18.3658 20.8462 18.548C20.755 18.8214 20.5728 18.8214 20.3905 18.8214Z" fill="#A38E65"/>
<path d="M30.7786 17.4544C30.4141 17.4544 30.1407 17.2721 29.9585 16.9988L28.7739 14.6295C27.8626 12.8982 28.2271 10.8023 29.594 9.43544C30.323 8.70645 30.7786 7.70408 30.6875 6.70171C30.6875 5.69935 30.2318 4.69698 29.4117 4.05911C29.0472 3.69461 28.9561 3.14787 29.3206 2.78337C29.6851 2.41887 30.2318 2.32775 30.5963 2.69224C31.781 3.69461 32.4188 5.1526 32.4188 6.70171C32.4188 8.25082 31.8721 9.70881 30.6875 10.8023C29.8673 11.6224 29.6851 12.807 30.2318 13.8094L31.4165 16.1786C31.6898 16.6343 31.5076 17.181 31.052 17.3633C31.052 17.3633 30.8697 17.4544 30.7786 17.4544Z" fill="#A38E65"/>
</svg>
