<svg width="56" height="56" viewBox="0 0 56 56" fill="none" xmlns="http://www.w3.org/2000/svg">
<path d="M29.9697 40.4159H26.0309V37.6759C23.2908 37.1621 21.4071 35.1927 20.722 32.1101L20.5508 31.3395L25.6028 30.0551L25.774 30.997C26.0309 32.4526 26.7159 33.1376 28.0003 33.1376C28.5997 33.1376 28.9422 33.052 29.1991 32.7951C29.456 32.5382 29.5416 32.2814 29.5416 31.9389C29.5416 31.5107 29.3704 31.3395 29.2847 31.2538C29.1135 31.0826 28.5997 30.8257 26.9728 30.2263C25.6884 29.7982 24.7465 29.3701 23.9759 28.9419C23.2052 28.4282 22.5202 27.7431 22.0064 26.8869C21.4927 26.0306 21.2358 25.0031 21.2358 23.8899C21.2358 22.4343 21.6639 21.0642 22.5202 19.9511C23.2908 18.9236 24.404 18.2386 25.9453 17.896V15.7554H29.8841V17.7248C32.196 18.2386 33.823 19.8655 34.5936 22.3486L34.8505 23.1193L30.3123 25.0031L30.0554 24.1468C29.3704 22.1774 28.4285 22.1774 28.1716 22.1774C27.6578 22.1774 27.4009 22.3486 27.3153 22.5199C27.0584 22.7768 26.9728 22.948 26.9728 23.2905C26.9728 23.633 27.0584 23.8043 27.2297 23.8899C27.4009 24.0612 27.9147 24.3181 29.2847 24.8318C30.6548 25.3456 31.6823 25.7737 32.4529 26.2019C33.3092 26.7156 33.9942 27.4006 34.508 28.2569C35.0217 29.1132 35.2786 30.1407 35.2786 31.3395C35.2786 33.052 34.7649 34.5077 33.7373 35.7064C32.7954 36.734 31.5967 37.419 30.0554 37.6759V40.4159H29.9697ZM27.7434 38.7034H28.2572V36.1346L29.0278 36.049C30.5691 35.8777 31.6823 35.3639 32.4529 34.5077C33.2236 33.6514 33.5661 32.6239 33.5661 31.2538C33.5661 30.3976 33.3948 29.7126 33.0523 29.1132C32.7098 28.5138 32.196 28 31.5967 27.6575C30.9116 27.2294 29.8841 26.8012 28.6853 26.3731C27.4009 25.8593 26.5447 25.5168 26.1165 25.1743C25.6884 24.8318 25.2603 24.2324 25.2603 23.2049C25.2603 22.4343 25.5171 21.7493 26.0309 21.2355C26.5447 20.7217 27.3153 20.3792 28.0859 20.3792C29.1135 20.3792 30.3979 20.8074 31.2541 22.6912L32.7098 22.0918C32.0248 20.4648 30.7404 19.523 28.9422 19.2661L28.1716 19.1804V17.2967H27.6578V19.1804L26.8872 19.2661C25.5171 19.4373 24.4896 19.9511 23.8902 20.8074C23.2052 21.6636 22.9483 22.6912 22.9483 23.7187C22.9483 24.5749 23.1196 25.26 23.4621 25.8593C23.8046 26.4587 24.2327 26.9725 24.8321 27.2294C25.4315 27.5719 26.3734 28 27.4866 28.4282C29.3704 29.1132 30.0554 29.5413 30.3123 29.7126C30.7404 30.0551 31.2541 30.6545 31.2541 31.7676C31.2541 32.5382 30.9973 33.2233 30.3979 33.8227C29.8841 34.422 29.0278 34.6789 28.0003 34.6789C26.1165 34.6789 24.8321 33.737 24.2327 32.0245L22.5202 32.4526C23.2052 34.5933 24.6609 35.7064 26.8872 35.9633L27.6578 36.049V38.7034H27.7434Z" fill="#A38E65"/>
<path d="M27.9998 50.948C15.327 50.948 5.05176 40.6728 5.05176 28C5.05176 15.3272 15.327 5.052 27.9998 5.052C40.6726 5.052 50.9478 15.3272 50.9478 28C50.9478 40.6728 40.6726 50.948 27.9998 50.948ZM27.9998 6.76454C16.2689 6.76454 6.7643 16.2691 6.7643 28C6.7643 39.7309 16.2689 49.2355 27.9998 49.2355C39.7307 49.2355 49.2352 39.7309 49.2352 28C49.2352 16.2691 39.7307 6.76454 27.9998 6.76454Z" fill="#A38E65"/>
<path d="M28 56C12.5872 56 0 43.4128 0 28C0 12.5872 12.5872 0 28 0C43.4128 0 56 12.5872 56 28C56 43.4128 43.4128 56 28 56ZM28 1.71254C13.5291 1.71254 1.71254 13.5291 1.71254 28C1.71254 42.471 13.5291 54.2875 28 54.2875C42.471 54.2875 54.2875 42.471 54.2875 28C54.2875 13.5291 42.471 1.71254 28 1.71254Z" fill="#A38E65"/>
</svg>
