<svg width="56" height="56" viewBox="0 0 56 56" fill="none" xmlns="http://www.w3.org/2000/svg">
<path d="M44.6001 9.69295C42.8292 9.69295 41.1135 10.1109 39.5574 10.9096C39.4441 4.87682 34.2382 0 27.8451 0C21.4568 0 16.2545 4.86941 16.1334 10.8958C14.5835 10.1054 12.8684 9.69212 11.0924 9.69212C4.97573 9.69212 0 14.6753 0 20.8003C0 26.6334 4.52788 31.4181 10.2522 31.8502V55.1515C10.2522 55.6205 10.6317 56 11.1007 56H44.5977C45.0666 56 45.4461 55.6205 45.4461 55.1515V31.8508C51.1778 31.4167 55.7116 26.6337 55.7116 20.8045C55.7116 14.6778 50.7268 9.69295 44.6001 9.69295ZM43.7492 47.5723H11.9492V42.4731H43.7492V47.5723ZM11.9492 54.303V49.2693H43.7492V54.303H11.9492ZM44.6014 30.1966C44.6001 30.1966 44.599 30.1958 44.5977 30.1958C44.1287 30.1958 43.7492 30.5753 43.7492 31.0443V40.7762H11.9492V31.8382C13.5473 31.7148 15.1073 31.27 16.5015 30.4924C16.9109 30.2646 17.0575 29.7475 16.8288 29.3382C16.601 28.9289 16.0839 28.7839 15.6746 29.0109C14.2842 29.7856 12.6991 30.1958 11.0924 30.1958C5.91205 30.1958 1.69697 25.9807 1.69697 20.8003C1.69697 15.6108 5.91205 11.3891 11.0924 11.3891C13.0827 11.3891 14.9827 11.9989 16.5861 13.1523C16.587 13.153 16.5881 13.153 16.5891 13.1537C16.7136 13.2425 16.8645 13.2831 17.0232 13.2943C17.0898 13.2989 17.1563 13.3097 17.2218 13.2987C17.2255 13.2982 17.2287 13.2996 17.2324 13.299C17.2844 13.2896 17.326 13.2609 17.3737 13.2429C17.427 13.2231 17.4822 13.2111 17.531 13.1806C17.5984 13.1382 17.6506 13.0798 17.7031 13.0213C17.7239 12.9983 17.7515 12.9851 17.7701 12.9593C17.7714 12.9575 17.7714 12.9553 17.7727 12.9535C17.8275 12.8762 17.863 12.7875 17.8896 12.6955C17.894 12.6801 17.9057 12.6665 17.9092 12.6509C17.9121 12.6384 17.9081 12.6245 17.9104 12.6117C17.9276 12.5147 17.9331 12.4165 17.9166 12.3206C17.9162 12.318 17.9172 12.3156 17.9168 12.313C17.8522 11.9542 17.819 11.5482 17.819 11.1082C17.819 5.91868 22.3166 1.69697 27.8451 1.69697C33.3735 1.69697 37.8711 5.91868 37.8711 11.1082C37.8711 11.5643 37.8397 11.9633 37.7743 12.3292C37.733 12.5496 37.775 12.7848 37.9167 12.9808C38.0662 13.1886 38.2919 13.2992 38.5275 13.3207C38.5552 13.3233 38.5833 13.328 38.6102 13.328C38.6343 13.328 38.6559 13.3177 38.6796 13.3157C38.7388 13.3103 38.7954 13.303 38.8532 13.2849C38.9096 13.2678 38.9598 13.2412 39.0111 13.213C39.0403 13.1968 39.073 13.1923 39.1007 13.1722C40.7165 12.0064 42.6181 11.3899 44.6001 11.3899C49.7913 11.3899 54.0147 15.6133 54.0147 20.8045C54.0147 25.9828 49.7921 30.1958 44.6014 30.1966Z" fill="#A38E65"/>
</svg>
