<svg width="56" height="56" viewBox="0 0 56 56" fill="none" xmlns="http://www.w3.org/2000/svg">
<path d="M46.1925 6.93406H10.467C8.58277 6.93406 7 5.35129 7 3.46703C7 1.58278 8.58277 0 10.467 0H46.1172C48.0014 0 49.5842 1.58278 49.5842 3.46703C49.6596 5.42666 48.0768 6.93406 46.1925 6.93406ZM10.467 1.58278C9.41185 1.58278 8.50741 2.48722 8.50741 3.5424C8.50741 4.59759 9.41185 5.50203 10.467 5.50203H46.1172C47.1724 5.50203 48.0768 4.59759 48.0768 3.5424C48.0768 2.48722 47.1724 1.58278 46.1172 1.58278H10.467Z" fill="#A38E65"/>
<path d="M46.1925 56H10.467C8.58277 56 7 54.4172 7 52.5329C7 50.6487 8.58277 49.0659 10.467 49.0659H46.1172C48.0014 49.0659 49.5842 50.6487 49.5842 52.5329C49.6596 54.4926 48.0768 56 46.1925 56ZM10.467 50.6487C9.41185 50.6487 8.50741 51.5531 8.50741 52.6083C8.50741 53.6635 9.41185 54.5679 10.467 54.5679H46.1172C47.1724 54.5679 48.0768 53.6635 48.0768 52.6083C48.0768 51.5531 47.2477 50.6487 46.1925 50.6487H10.467Z" fill="#A38E65"/>
<path d="M43.8556 49.8952H42.3482V43.6394C42.3482 37.0822 37.9014 31.4295 31.4949 29.9974C30.5904 29.7713 29.9121 28.9422 29.9121 28.0378C29.9121 27.1334 30.5904 26.3043 31.4949 26.0782C37.9014 24.6461 42.3482 18.9934 42.3482 12.4362V6.18042H43.8556V12.4362C43.8556 19.7471 38.8812 25.9274 31.7964 27.5102C31.5703 27.5856 31.4195 27.7363 31.4195 28.0378C31.4195 28.2639 31.5703 28.49 31.7964 28.5654C38.8812 30.1482 43.8556 36.4039 43.8556 43.6394V49.8952Z" fill="#A38E65"/>
<path d="M14.3111 49.8952H12.8037V43.6394C12.8037 36.3285 17.7782 30.1482 24.863 28.5654C25.0891 28.49 25.2398 28.3393 25.2398 28.0378C25.2398 27.8117 25.0891 27.5856 24.863 27.5102C17.7782 25.9274 12.8037 19.6717 12.8037 12.4362V6.18042H14.3111V12.4362C14.3111 18.9934 18.758 24.6461 25.1644 26.0782C26.0689 26.3043 26.7472 27.1334 26.7472 28.0378C26.7472 28.9422 26.0689 29.7713 25.1644 29.9974C18.758 31.4295 14.3111 37.0822 14.3111 43.6394V49.8952Z" fill="#A38E65"/>
</svg>
