<svg width="56" height="56" viewBox="0 0 56 56" fill="none" xmlns="http://www.w3.org/2000/svg">
<path d="M5.52237 41.0215C5.26331 44.0629 5.01069 54.7079 5.00023 55.1594C4.99763 55.2689 5.01695 55.3777 5.05704 55.4796C5.09713 55.5815 5.15718 55.6743 5.23367 55.7526C5.31015 55.8309 5.40153 55.8932 5.50241 55.9356C5.6033 55.9781 5.71167 56 5.82114 56H50.5514C50.6618 55.9999 50.7712 55.9776 50.8728 55.9343C50.9744 55.891 51.0663 55.8277 51.1429 55.7481C51.2196 55.6685 51.2794 55.5743 51.3188 55.4711C51.3582 55.3679 51.3764 55.2578 51.3723 55.1474L50.8537 41.4879C50.877 40.9838 50.8746 37.656 46.9798 35.987C44.095 34.7504 37.2534 31.9155 34.5987 30.8173C36.4243 29.031 37.8284 26.86 38.7089 24.4625C39.7567 21.6483 40.416 18.7044 40.6688 15.712C40.8207 15.6591 40.9535 15.5624 41.0507 15.4342C41.1479 15.306 41.205 15.152 41.2149 14.9914C41.7583 5.64055 37.0759 2.20772 34.2366 0.993398C29.7238 -0.936363 24.2309 0.170082 21.8692 2.38979C21.0986 2.44498 20.3476 2.65839 19.6632 3.0167C18.9787 3.37501 18.3754 3.87053 17.891 4.47234C15.1539 7.84261 16.0811 14.051 16.1216 14.3136C16.1477 14.476 16.2219 14.6268 16.3347 14.7465C16.4475 14.8662 16.5936 14.9493 16.7541 14.985C16.9399 18.6435 17.7434 22.2443 19.1306 25.6348C19.8827 27.3613 20.9392 28.9384 22.2498 30.2908L8.44027 36.2015C7.59209 36.6996 6.88125 37.4011 6.37185 38.2425C5.86245 39.084 5.57051 40.039 5.52237 41.0215ZM28.0623 38.9446L26.0864 37.6252L26.3575 35.7483H29.7675L30.0382 37.6252L28.0623 38.9446ZM27.6063 40.6153C27.7413 40.7055 27.9 40.7536 28.0623 40.7536C28.2246 40.7536 28.3833 40.7055 28.5183 40.6153L29.1809 40.1728L30.0686 54.3574H26.0564L26.9441 40.173L27.6063 40.6153ZM19.1658 5.5078C19.5419 5.04369 20.0159 4.66842 20.5538 4.40886C21.0918 4.14929 21.6805 4.01184 22.2778 4.00635C22.4904 3.99522 22.6903 3.90189 22.8353 3.74608C24.6728 1.77461 29.6628 0.824166 33.5909 2.50368C36.4025 3.70598 39.6344 6.60733 39.6132 13.5713C39.2126 13.3643 38.7584 13.284 38.3111 13.3411C38.1515 12.6176 37.8475 11.9337 37.4171 11.3306C36.9867 10.7275 36.4389 10.2175 35.8066 9.83132C35.705 9.76809 35.5908 9.72788 35.4719 9.71354C35.3531 9.6992 35.2326 9.71107 35.1189 9.74831C32.6488 10.5367 30.0758 10.9554 27.4832 10.9907C25.164 11.0925 22.8661 10.5092 20.8762 9.31358C20.7066 9.20091 20.5011 9.15538 20.2998 9.18584C20.0985 9.21631 19.9157 9.32059 19.787 9.4784C19.0803 10.3207 18.656 11.3637 18.5739 12.4601C18.2413 12.4456 17.9106 12.5179 17.6144 12.6697C17.5084 10.792 17.5818 7.45856 19.1658 5.5078ZM20.6312 24.9674C19.238 21.5201 18.4689 17.8526 18.3598 14.136C18.4249 14.1105 18.4954 14.102 18.5647 14.1111L19.1582 14.3273C19.2867 14.3742 19.4248 14.3882 19.56 14.3682C19.6953 14.3481 19.8234 14.2946 19.9327 14.2125C20.042 14.1304 20.1291 14.0223 20.186 13.898C20.2429 13.7737 20.2679 13.6371 20.2587 13.5007L20.2166 12.8711C20.1907 12.2507 20.3451 11.6362 20.6613 11.1018C22.7699 12.1801 25.1172 12.707 27.4844 12.6333C30.1123 12.599 32.7223 12.195 35.2376 11.433C35.6309 11.7026 35.9635 12.0514 36.2141 12.4571C36.4648 12.8627 36.6278 13.3163 36.6929 13.7887L36.6661 14.3802C36.6601 14.5125 36.6862 14.6443 36.7421 14.7643C36.7981 14.8844 36.8822 14.9891 36.9874 15.0696C37.0926 15.1501 37.2156 15.204 37.3461 15.2267C37.4766 15.2494 37.6107 15.2402 37.7368 15.1999L38.3007 15.0194C38.4296 14.967 38.5712 14.9543 38.7073 14.9829C38.8435 15.0115 38.968 15.08 39.065 15.1798C38.8478 18.1477 38.2133 21.0702 37.1802 23.8609C35.6879 27.6539 32.679 31.7071 28.7092 31.7071C24.9583 31.7072 22.0136 28.0766 20.6312 24.9674ZM9.13085 37.6913L23.6215 31.4906C25.0712 32.645 26.8567 33.2975 28.7092 33.3498C30.2804 33.3331 31.8126 32.8579 33.1176 31.9825C34.5991 32.5947 43.0468 36.0882 46.3325 37.4964C49.349 38.7894 49.2195 41.3134 49.2131 41.4137C49.2103 41.4464 49.2095 41.4792 49.2107 41.512L49.6983 54.3574H31.7145L30.7607 39.1177L31.3809 38.7035C31.5099 38.6176 31.6119 38.4968 31.6751 38.3552C31.7383 38.2136 31.76 38.0569 31.7378 37.9035L31.2918 34.8099C31.2636 34.6144 31.166 34.4356 31.0167 34.3063C30.8674 34.1769 30.6764 34.1057 30.4789 34.1057H25.6461C25.4486 34.1057 25.2577 34.1769 25.1084 34.3063C24.9591 34.4356 24.8614 34.6144 24.8332 34.8099L24.3869 37.9035C24.3646 38.057 24.3864 38.2136 24.4495 38.3552C24.5127 38.4968 24.6147 38.6176 24.7438 38.7036L25.3643 39.118L24.4106 54.3574H6.66291C6.72948 51.723 6.94604 43.6627 7.15938 41.1611C7.18545 40.467 7.3782 39.7893 7.72134 39.1854C8.06447 38.5815 8.54793 38.069 9.13085 37.6913Z" fill="#A38E65"/>
</svg>
