<svg width="56" height="56" viewBox="0 0 56 56" fill="none" xmlns="http://www.w3.org/2000/svg">
<path d="M44.0394 42.1582L42.0345 41.6743L48.395 17.0619L33.9456 28.815L27.9999 16.6471L22.0542 28.815L7.60483 17.0619L13.9653 41.6743L11.9604 42.1582L4.00977 11.4619L21.3629 25.5656L27.9999 11.8767L34.6369 25.5656L51.99 11.4619L44.0394 42.1582Z" fill="#A38E65"/>
<path d="M28.0002 13.6049C25.9261 13.6049 24.1978 11.8765 24.1978 9.80247C24.1978 7.7284 25.9261 6 28.0002 6C30.0743 6 31.8027 7.7284 31.8027 9.80247C31.8027 11.8765 30.0743 13.6049 28.0002 13.6049ZM28.0002 8.00494C27.0323 8.00494 26.2718 8.76543 26.2718 9.73333C26.2718 10.7012 27.0323 11.4617 28.0002 11.4617C28.9681 11.4617 29.7286 10.7012 29.7286 9.73333C29.7286 8.83457 28.9681 8.00494 28.0002 8.00494Z" fill="#A38E65"/>
<path d="M52.1975 13.6049C50.1234 13.6049 48.395 11.8765 48.395 9.80247C48.395 7.7284 50.1234 6 52.1975 6C54.2716 6 56 7.7284 56 9.80247C56 11.8765 54.2716 13.6049 52.1975 13.6049ZM52.1975 8.00494C51.2296 8.00494 50.4691 8.76543 50.4691 9.73333C50.4691 10.7012 51.2296 11.4617 52.1975 11.4617C53.1654 11.4617 53.9259 10.7012 53.9259 9.73333C53.9259 8.83457 53.1654 8.00494 52.1975 8.00494Z" fill="#A38E65"/>
<path d="M3.80247 13.6049C1.7284 13.6049 0 11.8765 0 9.80247C0 7.7284 1.7284 6 3.80247 6C5.87654 6 7.60494 7.7284 7.60494 9.80247C7.60494 11.8765 5.87654 13.6049 3.80247 13.6049ZM3.80247 8.00494C2.83457 8.00494 2.07407 8.76543 2.07407 9.73333C2.07407 10.7012 2.83457 11.4617 3.80247 11.4617C4.77037 11.4617 5.53086 10.7012 5.53086 9.73333C5.53086 8.83457 4.77037 8.00494 3.80247 8.00494Z" fill="#A38E65"/>
<path d="M43.4173 49.2099H12.5827C10.3012 49.2099 8.43457 47.3432 8.43457 45.0617C8.43457 42.7802 10.3012 40.9136 12.5827 40.9136H43.4864C45.7679 40.9136 47.6346 42.7802 47.6346 45.0617C47.6346 47.3432 45.6988 49.2099 43.4173 49.2099ZM12.5827 42.9876C11.4074 42.9876 10.5086 43.8864 10.5086 45.0617C10.5086 46.237 11.4074 47.1358 12.5827 47.1358H43.4864C44.6617 47.1358 45.5605 46.237 45.5605 45.0617C45.5605 43.8864 44.6617 42.9876 43.4864 42.9876H12.5827Z" fill="#A38E65"/>
</svg>
