<svg width="14" height="20" viewBox="0 0 14 20" fill="none" xmlns="http://www.w3.org/2000/svg">
<path d="M7 19.2395C6.81789 19.0266 6.57675 18.7397 6.29448 18.392C5.64467 17.5913 4.77908 16.4706 3.91448 15.1891C3.04892 13.9062 2.19053 12.4713 1.55005 11.0417C0.906636 9.60548 0.5 8.21133 0.5 7C0.5 3.41114 3.41114 0.5 7 0.5C10.5889 0.5 13.5 3.41114 13.5 7C13.5 8.21133 13.0934 9.60548 12.45 11.0417C11.8095 12.4713 10.9511 13.9062 10.0855 15.1891C9.22092 16.4706 8.35533 17.5913 7.70552 18.392C7.42325 18.7397 7.18211 19.0266 7 19.2395ZM4 7C4 8.65614 5.34386 10 7 10C8.65614 10 10 8.65614 10 7C10 5.34386 8.65614 4 7 4C5.34386 4 4 5.34386 4 7Z" stroke="#A38E65"/>
</svg>
